<?xml version="1.0" encoding="UTF-8" standalone="no"?>
<svg
   version="1.0"
   width="320.23779"
   height="48.263428"
   viewBox="0 0 4892.5218 737.38097"
   preserveAspectRatio="xMidYMid"
   id="svg15"
   xmlns="http://www.w3.org/2000/svg"
   xmlns:svg="http://www.w3.org/2000/svg">
  <defs
     id="defs15" />
  <g
     transform="matrix(0.1,0,0,-0.1,-313.61094,2466.5815)"
     fill="#000000"
     stroke="none"
     id="g15"
     style="fill:#c3f336;fill-opacity:0.74902">
    <path
       d="m 6492,24659 c -218,-24 -678,-134 -967,-230 -98,-33 -372,-162 -500,-237 -592,-344 -1107,-862 -1428,-1437 -83,-148 -200,-411 -281,-630 -56,-150 -117,-396 -136,-545 -4,-36 -16,-117 -26,-180 -25,-156 -25,-623 0,-850 21,-191 99,-549 162,-742 205,-632 648,-1279 1149,-1678 44,-35 102,-82 130,-104 273,-223 830,-500 1212,-602 162,-43 201,-52 383,-83 313,-53 623,-63 960,-30 58,6 123,10 145,10 130,0 559,100 805,189 155,57 416,179 535,251 28,16 91,53 140,81 170,96 436,302 628,488 201,194 371,397 504,600 218,332 333,566 443,900 163,493 222,1023 169,1510 -25,227 -53,401 -83,516 -13,49 -32,121 -41,159 -10,39 -22,79 -26,90 -4,11 -24,65 -43,120 -81,233 -163,415 -265,584 -33,56 -61,104 -61,107 0,3 -8,17 -18,32 -11,15 -38,56 -62,92 -80,122 -105,155 -199,270 -213,259 -515,542 -736,690 -38,26 -98,65 -131,88 -160,107 -552,305 -694,351 -58,18 -139,44 -180,58 -193,63 -465,120 -700,148 -160,19 -665,28 -788,14 z m 758,-153 c 679,-85 1274,-333 1810,-756 141,-112 454,-428 564,-570 172,-223 295,-421 411,-664 384,-800 448,-1720 180,-2576 -101,-322 -296,-710 -498,-990 -497,-692 -1233,-1187 -2061,-1385 -244,-58 -409,-82 -669,-94 -1215,-59 -2373,508 -3076,1506 -349,495 -565,1091 -622,1712 -17,190 -7,605 20,781 118,794 453,1463 1010,2021 595,594 1371,952 2226,1029 137,12 565,4 705,-14 z"
       id="path1"
       style="fill:#c3f336;fill-opacity:0.74902" />
    <path
       d="m 6305,21649 -1418,-1421 69,-69 69,-69 720,718 c 396,396 1035,1032 1420,1414 l 699,696 -64,75 c -36,42 -68,76 -71,76 -3,1 -644,-638 -1424,-1420 z"
       id="path2"
       style="fill:#c3f336;fill-opacity:0.74902" />
    <path
       d="m 5725,22170 c -473,-473 -860,-864 -860,-869 0,-5 31,-42 69,-81 l 70,-72 365,368 c 201,203 590,595 864,870 l 500,502 -68,71 c -38,39 -71,71 -74,71 -4,0 -393,-387 -866,-860 z"
       id="path3"
       style="fill:#c3f336;fill-opacity:0.74902" />
    <path
       d="m 6750,21055 -1925,-1925 75,-75 75,-75 1925,1925 1924,1924 -69,73 c -39,40 -72,74 -75,76 -3,1 -871,-864 -1930,-1923 z"
       id="path4"
       style="fill:#c3f336;fill-opacity:0.74902" />
    <path
       d="m 7365,20485 -1419,-1413 64,-75 c 36,-42 67,-76 70,-76 6,-1 2526,2522 2733,2734 l 107,111 -68,66 -67,66 z"
       id="path5"
       style="fill:#c3f336;fill-opacity:0.74902" />
    <path
       d="m 8440,20473 c -200,-203 -589,-594 -863,-869 l -500,-502 70,-72 c 63,-66 71,-71 89,-59 10,8 401,397 869,866 l 849,852 -69,74 c -39,41 -72,75 -76,76 -3,0 -169,-164 -369,-366 z"
       id="path6"
       style="fill:#c3f336;fill-opacity:0.74902" />
    <path
       d="m 13420,22950 v -470 h 595 595 v -1960 -1960 h 515 515 v 1960 1960 h 568 567 l 270,272 c 149,150 357,362 464,470 l 194,198 h -2142 -2141 z"
       id="path7"
       style="fill:#c3f336;fill-opacity:0.74902" />
    <path
       d="m 32182,23408 c -7,-7 -12,-16 -12,-20 0,-4 -51,-122 -114,-261 -62,-138 -270,-603 -461,-1032 -191,-429 -504,-1131 -695,-1560 -191,-429 -463,-1039 -603,-1355 -140,-316 -262,-588 -271,-605 -9,-16 -16,-33 -16,-37 0,-5 242,-8 539,-8 465,0 540,2 551,15 15,18 50,91 145,300 39,88 114,251 165,363 l 93,202 h 1141 c 899,0 1145,-3 1158,-12 8,-7 77,-152 153,-323 75,-170 158,-357 184,-415 l 47,-105 543,-3 542,-2 -7,22 c -3,13 -17,41 -29,63 -13,22 -221,486 -463,1030 -242,545 -576,1294 -742,1665 -166,371 -443,993 -617,1383 l -316,707 h -451 c -338,0 -455,-3 -464,-12 z m 481,-1345 c 14,-32 86,-206 160,-388 74,-181 204,-494 290,-695 158,-372 297,-707 297,-715 0,-3 -351,-5 -779,-5 h -779 l 13,28 c 7,15 65,153 128,307 63,154 154,375 202,490 48,116 131,318 185,450 54,132 126,308 160,390 34,83 66,160 71,173 13,34 24,27 52,-35 z"
       id="path8"
       style="fill:#c3f336;fill-opacity:0.74902" />
    <path
       d="m 37675,23409 c -253,-19 -512,-106 -733,-248 -251,-161 -425,-491 -439,-831 -16,-388 180,-735 557,-987 140,-94 466,-247 925,-433 530,-216 631,-270 816,-440 196,-179 285,-373 296,-643 11,-263 -53,-457 -210,-636 -557,-633 -1679,-575 -2195,114 -66,89 -143,244 -178,360 -15,50 -28,92 -30,93 -3,5 -186,-67 -196,-76 -9,-9 69,-201 116,-285 233,-415 646,-710 1146,-819 92,-20 133,-22 335,-22 217,-1 237,1 350,28 208,49 410,139 554,246 348,261 522,577 523,950 1,232 -54,407 -189,609 -122,181 -252,307 -418,404 -52,30 -994,452 -1331,596 -284,121 -477,297 -588,532 -68,144 -80,200 -80,374 -1,178 11,231 84,380 70,143 138,227 246,303 529,375 1245,325 1684,-117 135,-136 214,-262 275,-434 22,-62 31,-77 44,-72 9,4 41,16 71,27 84,31 84,31 40,130 -83,192 -172,322 -329,478 -303,302 -711,451 -1146,419 z"
       id="path9"
       style="fill:#c3f336;fill-opacity:0.74902" />
    <path
       d="m 21370,20970 v -2440 h 515 515 v 810 810 h 335 c 335,0 336,0 358,-22 12,-13 146,-213 297,-446 151,-232 375,-576 498,-763 122,-188 229,-354 238,-370 l 15,-29 h 544 c 300,0 545,2 545,4 0,6 -299,472 -516,806 -88,135 -210,324 -272,420 -61,96 -174,272 -251,390 -116,180 -137,217 -124,225 9,6 62,41 119,78 165,107 346,291 456,462 413,640 328,1481 -204,2014 -271,273 -629,438 -1005,467 -51,3 -93,10 -93,15 0,5 -432,9 -985,9 h -985 z m 2114,1442 c 71,-34 104,-58 166,-120 84,-85 128,-154 166,-264 34,-96 44,-297 21,-399 -53,-224 -188,-404 -376,-502 -127,-67 -127,-67 -618,-67 h -443 v 700 701 l 498,-3 497,-3 z"
       id="path10"
       style="fill:#c3f336;fill-opacity:0.74902" />
    <path
       d="m 25860,20970 v -2440 h 515 515 v 810 810 h 335 c 335,0 336,0 358,-22 12,-13 146,-213 297,-446 151,-232 375,-576 498,-763 122,-188 229,-354 238,-370 l 15,-29 h 544 c 300,0 545,2 545,4 0,6 -299,472 -516,806 -88,135 -210,324 -272,420 -61,96 -174,272 -251,390 -116,180 -137,217 -124,225 9,6 62,41 119,78 165,107 346,291 456,462 148,229 232,479 258,774 28,308 -60,669 -230,946 -234,382 -623,653 -1050,734 -242,45 -234,45 -1262,48 l -988,3 z m 2003,1484 c 106,-27 195,-79 278,-163 83,-84 127,-153 165,-263 34,-96 44,-297 21,-399 -53,-224 -188,-404 -376,-503 -130,-68 -132,-68 -621,-64 l -440,3 v 190 c 0,105 -3,416 -7,693 l -6,502 119,1 c 65,1 173,5 239,9 247,14 563,11 628,-6 z"
       id="path11"
       style="fill:#c3f336;fill-opacity:0.74902" />
    <path
       d="m 18173,23148 c -121,-134 -306,-337 -412,-452 l -191,-210 v -1978 -1978 h 1530 1530 v 480 480 h -1015 -1015 v 525 525 h 765 765 v 460 460 h -765 -765 v 505 505 h 985 985 v 460 460 h -1089 -1088 z"
       id="path12"
       style="fill:#c3f336;fill-opacity:0.74902" />
    <path
       d="m 50395,23384 c -600,-34 -1144,-274 -1559,-690 -356,-355 -591,-821 -672,-1329 -25,-157 -30,-483 -10,-646 59,-463 229,-871 517,-1234 76,-97 257,-279 359,-362 189,-152 459,-306 684,-388 763,-280 1618,-145 2270,358 l 78,61 -83,77 -84,77 -30,-28 c -16,-15 -68,-56 -115,-90 -645,-473 -1516,-539 -2220,-168 -634,334 -1053,934 -1166,1668 -25,159 -25,481 0,640 194,1253 1331,2077 2534,1835 353,-72 676,-228 978,-476 7,-6 32,18 73,69 l 63,77 -43,39 c -54,47 -237,168 -339,224 -249,136 -582,241 -860,271 -115,12 -293,19 -375,15 z"
       id="path13"
       style="fill:#c3f336;fill-opacity:0.74902" />
    <path
       d="m 39547,23328 c 58,-76 176,-237 418,-573 159,-220 518,-714 797,-1098 l 508,-698 v -1155 -1154 h 100 100 v 1143 1142 l 198,275 c 108,151 359,500 557,775 197,275 489,682 648,905 159,223 299,415 310,428 l 20,22 h -121 -121 l -322,-447 c -178,-247 -507,-704 -733,-1018 -460,-640 -512,-711 -525,-719 -4,-3 -111,140 -237,317 -126,177 -427,601 -669,942 -243,341 -489,689 -549,773 l -107,152 h -141 c -111,0 -138,-3 -131,-12 z"
       id="path14"
       style="fill:#c3f336;fill-opacity:0.74902" />
    <path
       d="m 43790,20990 v -2350 h 110 110 l 2,2137 3,2137 236,-309 c 494,-650 1466,-1924 1543,-2025 185,-242 1212,-1589 1336,-1752 l 135,-178 h 88 87 v 2335 2335 h -110 -110 l -2,-2130 -3,-2129 -185,242 c -102,133 -367,480 -589,772 -386,506 -1756,2300 -2191,2870 -114,149 -228,298 -254,333 l -47,62 h -80 -79 z"
       id="path15"
       style="fill:#c3f336;fill-opacity:0.74902" />
  </g>
</svg>
