<svg xmlns="http://www.w3.org/2000/svg" xmlns:xlink="http://www.w3.org/1999/xlink" id="svg" width="400" height="135.02289426046212" viewBox="0, 0, 400,135.02289426046212"><g id="svgg"><path id="path0" d="M10.176 15.593 C 7.266 16.224,4.762 18.667,4.085 21.536 C 3.815 22.684,3.695 57.921,3.962 57.806 C 4.032 57.775,6.187 55.538,8.750 52.833 C 11.312 50.129,13.911 47.392,14.525 46.750 C 19.671 41.370,20.333 38.853,20.333 24.655 L 20.333 15.333 15.792 15.347 C 12.572 15.356,10.938 15.428,10.176 15.593 M363.167 21.667 L 363.167 28.000 371.333 28.000 L 379.500 28.000 379.500 25.356 C 379.500 21.231,379.060 19.801,377.170 17.780 C 375.167 15.639,373.976 15.333,367.636 15.333 L 363.167 15.333 363.167 21.667 " stroke="none" fill="#04a4e4" fill-rule="evenodd"></path><path id="path1" d="M383.532 4.458 L 383.583 5.083 384.542 5.133 L 385.500 5.183 385.500 7.675 L 385.500 10.167 386.417 10.167 L 387.333 10.167 387.333 7.667 L 387.333 5.167 388.250 5.167 L 389.167 5.167 389.167 4.500 L 389.167 3.833 386.323 3.833 L 383.480 3.833 383.532 4.458 M390.000 7.000 L 390.000 10.167 390.911 10.167 L 391.822 10.167 391.869 8.458 L 391.917 6.750 392.268 7.667 C 392.817 9.103,393.745 9.125,394.382 7.717 L 394.820 6.750 394.868 8.417 L 394.917 10.083 395.792 10.134 L 396.667 10.184 396.667 7.009 L 396.667 3.833 395.660 3.833 L 394.654 3.833 394.053 5.167 C 393.320 6.793,393.375 6.793,392.691 5.164 L 392.131 3.833 391.066 3.833 L 390.000 3.833 390.000 7.000 M57.285 15.529 C 51.992 16.072,48.425 17.885,44.500 22.025 C 43.262 23.330,40.525 26.208,38.417 28.421 C 36.308 30.633,33.602 33.488,32.402 34.763 C 31.202 36.039,27.973 39.446,25.225 42.333 C 22.478 45.221,19.603 48.258,18.835 49.083 C 18.067 49.908,16.827 51.221,16.080 52.000 C 7.616 60.818,7.320 61.162,6.111 63.628 C 3.988 67.958,3.953 68.254,3.877 82.292 L 3.813 94.167 12.073 94.167 L 20.333 94.167 20.333 79.864 C 20.333 62.986,20.239 63.785,22.421 62.128 C 26.078 59.349,30.805 61.149,34.583 66.759 C 34.950 67.303,35.744 68.424,36.348 69.249 C 37.283 70.527,39.673 73.870,40.500 75.057 C 40.637 75.254,41.446 76.391,42.296 77.583 C 43.147 78.775,44.384 80.521,45.046 81.462 C 45.708 82.404,46.813 83.953,47.500 84.903 C 48.188 85.854,49.950 88.326,51.417 90.397 L 54.083 94.161 64.042 94.164 C 69.519 94.165,73.998 94.110,73.995 94.042 C 73.993 93.973,72.117 91.367,69.826 88.250 C 67.535 85.133,64.819 81.429,63.789 80.018 C 60.703 75.791,57.605 71.559,55.782 69.083 C 54.837 67.800,53.281 65.674,52.324 64.358 C 50.404 61.719,46.630 56.562,44.257 53.333 C 43.414 52.188,42.072 50.359,41.274 49.271 L 39.823 47.291 42.203 44.855 C 43.512 43.516,50.061 36.906,56.755 30.168 C 63.450 23.430,69.481 17.335,70.159 16.625 L 71.390 15.333 65.070 15.356 C 61.594 15.368,58.091 15.446,57.285 15.529 M301.333 54.750 L 301.333 94.167 309.250 94.167 L 317.167 94.167 317.167 77.458 L 317.168 60.750 317.577 58.300 C 318.966 49.983,323.159 45.827,330.152 45.836 C 334.571 45.841,337.553 47.477,340.044 51.262 C 342.656 55.231,342.830 56.948,342.832 78.792 L 342.833 94.167 350.590 94.167 L 358.346 94.167 358.287 73.958 C 358.222 51.696,358.262 52.591,357.155 48.760 C 355.648 43.540,352.143 38.918,347.162 35.579 C 337.692 29.232,323.863 31.111,318.106 39.526 L 317.167 40.898 317.167 31.624 C 317.167 20.226,317.129 19.998,314.896 17.713 C 312.883 15.654,311.632 15.336,305.542 15.334 L 301.333 15.333 301.333 54.750 M103.917 30.761 C 103.733 30.788,102.758 30.899,101.750 31.007 C 99.853 31.210,96.617 31.944,95.641 32.392 C 95.334 32.533,94.428 32.947,93.626 33.313 C 87.526 36.095,82.647 42.030,80.679 49.061 C 77.317 61.075,78.806 75.421,84.275 83.697 C 91.780 95.056,112.880 97.747,124.497 88.828 C 138.095 78.385,138.960 49.465,126.037 37.319 C 120.885 32.476,111.388 29.661,103.917 30.761 M205.167 30.762 C 204.846 30.798,203.798 30.913,202.837 31.018 C 193.409 32.046,186.712 37.242,182.456 46.833 C 180.138 52.056,179.321 62.489,180.595 70.583 C 182.674 83.780,190.886 92.332,202.990 93.902 C 217.259 95.753,229.365 89.700,233.956 78.417 C 234.544 76.972,235.333 74.597,235.333 74.274 C 235.333 74.095,222.786 74.153,221.820 74.336 C 220.064 74.669,219.583 75.013,216.833 77.906 C 214.408 80.458,208.942 81.509,204.634 80.252 C 199.916 78.875,196.509 73.515,196.501 67.459 L 196.500 66.668 216.292 66.626 L 236.083 66.583 236.080 62.167 C 236.068 47.474,231.003 37.719,221.138 33.388 C 220.191 32.972,219.182 32.528,218.895 32.401 C 216.555 31.365,208.416 30.393,205.167 30.762 M266.250 30.764 C 256.645 31.720,250.506 35.130,246.097 41.959 C 241.534 49.026,239.869 61.392,242.022 72.223 C 244.447 84.419,252.598 92.402,264.156 93.902 C 279.348 95.873,291.771 89.002,295.888 76.353 C 296.225 75.319,296.500 74.400,296.500 74.310 C 296.500 74.205,294.036 74.165,289.621 74.198 L 282.742 74.250 281.663 74.787 C 280.854 75.189,280.145 75.769,278.833 77.099 C 272.920 83.102,262.783 81.721,259.130 74.417 C 256.422 69.002,256.230 56.987,258.756 50.986 C 262.339 42.473,274.546 41.640,279.122 49.596 L 279.738 50.667 287.869 50.667 C 292.341 50.667,296.000 50.607,296.000 50.534 C 296.000 50.050,294.556 46.268,293.786 44.736 C 291.010 39.210,287.345 35.590,282.305 33.394 C 281.358 32.981,280.450 32.572,280.288 32.485 C 278.377 31.456,269.826 30.409,266.250 30.764 M167.250 31.091 C 152.668 32.701,143.740 39.827,140.498 52.445 C 139.396 56.732,139.442 55.776,139.378 75.875 L 139.320 94.167 147.732 94.167 L 156.145 94.167 156.213 76.458 C 156.279 59.346,156.293 58.697,156.624 57.162 C 158.089 50.382,161.694 48.032,170.875 47.872 L 175.167 47.797 175.167 39.315 L 175.167 30.833 172.208 30.852 C 170.581 30.862,168.350 30.970,167.250 31.091 M363.167 63.739 L 363.167 94.167 371.333 94.167 L 379.500 94.167 379.499 67.458 C 379.498 39.479,379.496 39.398,378.733 37.934 C 376.706 34.047,375.327 33.444,368.292 33.368 L 363.167 33.312 363.167 63.739 M109.417 44.502 C 116.917 46.360,120.722 55.563,118.945 67.545 C 117.293 78.686,110.132 83.769,101.747 79.752 C 96.958 77.457,94.788 71.762,94.762 61.417 C 94.747 55.191,95.798 51.310,98.368 48.107 C 100.671 45.237,105.725 43.588,109.417 44.502 M211.238 44.576 C 216.313 45.895,218.459 48.798,219.406 55.625 L 219.504 56.333 208.002 56.333 L 196.500 56.333 196.500 55.651 C 196.500 47.920,203.593 42.590,211.238 44.576 M34.167 120.417 L 34.167 128.167 35.167 128.167 L 36.167 128.167 36.167 127.583 C 36.167 126.995,36.387 126.799,36.555 127.237 C 36.968 128.312,40.129 128.814,41.607 128.040 C 44.257 126.651,45.126 122.019,43.326 118.873 C 41.940 116.451,38.753 115.929,36.792 117.804 L 36.167 118.401 36.167 115.534 L 36.167 112.667 35.167 112.667 L 34.167 112.667 34.167 120.417 M67.333 114.000 L 67.333 115.167 68.333 115.167 L 69.333 115.167 69.333 114.000 L 69.333 112.833 68.333 112.833 L 67.333 112.833 67.333 114.000 M209.500 114.000 L 209.500 115.167 210.500 115.167 L 211.500 115.167 211.500 114.000 L 211.500 112.833 210.500 112.833 L 209.500 112.833 209.500 114.000 M285.667 115.517 L 285.667 118.201 285.065 117.673 C 282.863 115.740,279.113 117.006,278.056 120.040 C 277.626 121.273,277.631 124.074,278.065 125.322 C 279.109 128.320,283.100 129.563,285.206 127.546 L 285.667 127.104 285.667 127.635 L 285.667 128.167 286.750 128.167 L 287.833 128.167 287.833 120.500 L 287.833 112.833 286.750 112.833 L 285.667 112.833 285.667 115.517 M320.500 114.000 L 320.500 115.167 321.583 115.167 L 322.667 115.167 322.667 114.000 L 322.667 112.833 321.583 112.833 L 320.500 112.833 320.500 114.000 M358.500 120.500 L 358.500 128.167 359.583 128.167 L 360.667 128.167 360.667 120.500 L 360.667 112.833 359.583 112.833 L 358.500 112.833 358.500 120.500 M104.167 113.279 C 102.117 114.130,101.238 116.435,102.223 118.380 L 102.612 119.149 101.787 119.950 C 97.055 124.537,102.810 130.794,108.899 127.683 L 110.236 127.000 110.833 127.583 C 111.420 128.157,111.455 128.167,112.837 128.167 L 114.243 128.167 112.877 126.792 L 111.512 125.417 112.024 124.596 C 112.657 123.583,113.263 122.003,113.420 120.955 L 113.538 120.167 112.436 120.167 L 111.333 120.167 111.333 120.732 C 111.333 121.386,110.765 123.284,110.445 123.699 C 110.234 123.972,105.563 119.548,104.359 117.936 C 102.717 115.736,105.314 114.170,108.405 115.495 C 108.839 115.681,109.226 115.833,109.264 115.833 C 109.302 115.833,109.333 115.395,109.333 114.859 L 109.333 113.884 108.625 113.586 C 107.903 113.281,104.692 113.061,104.167 113.279 M8.833 120.750 L 8.833 128.167 10.000 128.167 L 11.167 128.167 11.167 125.083 L 11.167 122.000 12.505 122.000 C 14.841 122.000,15.185 122.292,17.037 125.837 L 18.250 128.161 19.386 128.164 C 20.763 128.167,20.782 128.372,19.109 125.083 C 18.277 123.448,17.687 122.513,17.135 121.958 L 16.348 121.166 17.000 120.833 C 18.896 119.866,19.236 116.436,17.604 114.753 C 16.438 113.552,15.561 113.333,11.910 113.333 L 8.833 113.333 8.833 120.750 M125.749 115.875 C 123.097 122.814,121.172 127.929,121.169 128.042 C 121.168 128.110,121.685 128.167,122.318 128.167 L 123.468 128.167 123.981 126.750 C 124.263 125.971,124.541 125.146,124.598 124.917 L 124.703 124.500 127.920 124.500 L 131.137 124.500 131.777 126.332 L 132.417 128.165 133.625 128.166 C 134.290 128.166,134.833 128.138,134.833 128.102 C 134.833 128.067,134.344 126.773,133.746 125.227 C 133.147 123.682,131.944 120.512,131.071 118.183 C 129.048 112.785,129.403 113.333,127.938 113.333 L 126.721 113.333 125.749 115.875 M59.333 115.500 L 59.333 117.000 58.667 117.000 L 58.000 117.000 58.000 117.833 L 58.000 118.667 58.667 118.667 L 59.333 118.667 59.334 122.125 C 59.336 127.656,59.686 128.167,63.478 128.167 L 65.167 128.167 65.167 127.333 L 65.167 126.500 63.699 126.500 C 61.407 126.500,61.360 126.402,61.343 121.542 L 61.333 118.667 63.250 118.667 L 65.167 118.667 65.167 117.833 L 65.167 117.000 63.250 117.000 L 61.333 117.000 61.333 115.500 L 61.333 114.000 60.333 114.000 L 59.333 114.000 59.333 115.500 M149.333 115.500 L 149.333 117.000 148.750 117.000 L 148.167 117.000 148.167 117.833 L 148.167 118.667 148.736 118.667 L 149.306 118.667 149.361 122.375 C 149.441 127.707,149.660 128.035,153.208 128.143 L 155.167 128.202 155.167 127.367 L 155.167 126.532 153.591 126.474 C 151.460 126.396,151.593 126.665,151.533 122.325 L 151.482 118.667 153.324 118.667 L 155.167 118.667 155.167 117.833 L 155.167 117.000 153.333 117.000 L 151.500 117.000 151.500 115.500 L 151.500 114.000 150.417 114.000 L 149.333 114.000 149.333 115.500 M201.500 115.500 L 201.500 117.000 200.833 117.000 L 200.167 117.000 200.167 117.833 L 200.167 118.667 200.833 118.667 L 201.500 118.667 201.505 122.125 C 201.513 127.528,201.839 128.036,205.375 128.143 L 207.333 128.202 207.333 127.351 L 207.333 126.500 205.935 126.500 C 203.689 126.500,203.761 126.636,203.699 122.265 L 203.648 118.667 205.491 118.667 L 207.333 118.667 207.333 117.833 L 207.333 117.000 205.500 117.000 L 203.667 117.000 203.667 115.500 L 203.667 114.000 202.583 114.000 L 201.500 114.000 201.500 115.500 M15.280 115.598 C 15.920 116.073,16.200 116.708,16.192 117.671 C 16.178 119.488,15.242 120.157,12.708 120.163 L 11.167 120.167 11.167 117.652 L 11.167 115.137 12.988 115.194 C 14.520 115.241,14.885 115.306,15.280 115.598 M128.726 117.958 C 129.145 119.035,129.711 120.535,129.982 121.292 L 130.477 122.667 127.971 122.667 C 126.035 122.667,125.482 122.619,125.543 122.458 C 125.770 121.853,127.190 117.940,127.509 117.042 C 127.965 115.755,127.829 115.653,128.726 117.958 M24.679 116.921 C 20.356 118.134,19.845 126.026,23.960 128.022 C 27.427 129.703,31.181 127.352,31.457 123.324 C 31.778 118.637,28.752 115.778,24.679 116.921 M49.346 117.040 C 45.045 118.481,45.208 126.876,49.563 128.238 C 54.226 129.696,58.019 125.189,56.284 120.250 C 55.325 117.518,52.215 116.080,49.346 117.040 M75.617 117.002 C 71.906 118.117,70.696 124.170,73.604 127.078 C 75.068 128.542,78.130 128.938,80.542 127.976 C 81.117 127.746,81.280 125.870,80.708 126.056 C 80.548 126.108,79.967 126.313,79.417 126.510 C 76.431 127.582,74.253 125.961,74.251 122.667 C 74.249 119.299,76.421 117.719,79.500 118.847 C 81.164 119.456,81.024 119.499,80.967 118.397 L 80.917 117.417 80.083 117.132 C 79.185 116.826,76.468 116.746,75.617 117.002 M85.250 117.055 C 83.844 117.697,83.167 118.693,83.167 120.119 C 83.167 121.992,83.925 122.698,86.687 123.397 C 89.216 124.037,89.500 124.228,89.500 125.291 C 89.500 126.753,87.126 127.262,84.583 126.345 C 84.033 126.147,83.452 125.942,83.292 125.889 C 83.035 125.806,83.000 125.918,83.000 126.806 L 83.000 127.818 83.625 127.992 C 88.381 129.322,91.583 128.141,91.583 125.055 C 91.583 123.098,90.781 122.374,87.917 121.747 C 85.605 121.241,84.952 120.711,85.238 119.573 C 85.476 118.625,87.477 118.241,89.423 118.770 C 91.318 119.285,91.167 119.327,91.167 118.286 C 91.167 117.401,91.146 117.358,90.625 117.160 C 89.806 116.849,85.871 116.772,85.250 117.055 M159.742 117.047 C 155.664 118.679,155.258 126.047,159.142 127.954 C 160.398 128.571,162.798 128.625,164.012 128.064 C 167.805 126.310,167.818 119.092,164.030 117.224 C 163.272 116.851,160.517 116.737,159.742 117.047 M173.250 117.065 C 172.975 117.185,172.506 117.489,172.208 117.740 L 171.667 118.196 171.667 117.598 L 171.667 117.000 170.583 117.000 L 169.500 117.000 169.500 122.583 L 169.500 128.167 170.583 128.167 L 171.667 128.167 171.668 124.708 C 171.669 120.154,171.918 119.377,173.581 118.742 C 175.986 117.824,176.656 119.103,176.663 124.625 L 176.667 128.167 177.667 128.167 L 178.667 128.167 178.667 124.780 C 178.667 120.201,179.180 118.919,181.146 118.587 C 183.253 118.231,183.719 119.230,183.806 124.292 L 183.872 128.167 184.853 128.167 L 185.833 128.167 185.833 124.342 C 185.833 118.164,185.179 116.835,182.136 116.834 C 180.537 116.833,180.286 116.930,179.114 118.001 C 178.593 118.477,178.167 118.787,178.167 118.689 C 178.167 117.379,174.958 116.319,173.250 117.065 M190.375 117.197 L 189.333 117.547 189.333 118.440 C 189.333 119.466,189.293 119.448,190.500 118.971 C 192.673 118.111,195.000 118.541,195.670 119.924 C 196.270 121.163,196.265 121.166,193.958 121.169 C 189.687 121.174,187.792 122.936,188.649 126.103 C 189.305 128.528,193.315 129.387,195.358 127.541 L 196.000 126.961 196.000 127.564 L 196.000 128.167 197.083 128.167 L 198.167 128.167 198.161 124.708 C 198.153 120.072,197.886 118.975,196.474 117.766 C 195.268 116.734,192.519 116.478,190.375 117.197 M217.040 117.261 C 215.062 118.247,214.417 119.576,214.417 122.667 C 214.417 126.781,215.824 128.399,219.417 128.411 C 222.993 128.423,224.417 126.787,224.417 122.667 C 224.417 118.601,222.901 116.833,219.417 116.833 C 218.121 116.833,217.773 116.896,217.040 117.261 M231.070 117.070 C 230.788 117.193,230.282 117.535,229.945 117.830 L 229.333 118.368 229.333 117.684 L 229.333 117.000 228.333 117.000 L 227.333 117.000 227.333 122.583 L 227.333 128.167 228.315 128.167 L 229.297 128.167 229.367 124.542 C 229.455 120.024,229.743 119.249,231.553 118.670 C 233.993 117.890,234.664 119.139,234.666 124.458 L 234.667 128.167 235.762 128.167 L 236.858 128.167 236.796 123.875 C 236.726 119.099,236.678 118.873,235.472 117.719 C 234.538 116.825,232.367 116.505,231.070 117.070 M250.167 117.019 C 249.938 117.110,249.469 117.458,249.125 117.793 L 248.500 118.401 248.500 117.700 L 248.500 117.000 247.500 117.000 L 246.500 117.000 246.500 122.583 L 246.500 128.167 247.482 128.167 L 248.463 128.167 248.526 124.542 C 248.611 119.698,249.119 118.628,251.347 118.595 C 253.231 118.567,253.478 119.225,253.491 124.292 L 253.500 128.167 254.583 128.167 L 255.667 128.167 255.671 124.542 C 255.677 119.909,256.082 118.935,258.149 118.586 C 260.215 118.237,260.570 119.027,260.636 124.125 L 260.688 128.167 261.685 128.167 L 262.682 128.167 262.633 123.792 C 262.586 119.615,262.566 119.381,262.200 118.638 C 261.111 116.427,257.914 116.102,256.007 118.009 L 255.178 118.838 254.938 118.377 C 254.240 117.036,251.846 116.354,250.167 117.019 M268.250 116.915 C 268.158 116.946,267.652 117.100,267.125 117.258 L 266.167 117.546 266.167 118.439 C 266.167 119.466,266.116 119.444,267.422 118.979 C 270.250 117.972,272.830 118.796,272.833 120.708 L 272.833 121.167 270.755 121.167 C 266.390 121.167,264.293 123.568,265.849 126.783 C 266.758 128.661,270.486 129.112,272.322 127.567 L 272.833 127.137 272.833 127.652 L 272.833 128.167 273.932 128.167 L 275.030 128.167 274.973 124.125 C 274.900 118.960,274.442 117.794,272.183 117.026 C 271.681 116.855,268.682 116.771,268.250 116.915 M293.566 117.233 C 290.990 118.432,289.843 121.671,290.845 124.916 C 291.801 128.011,295.335 129.301,299.417 128.045 L 300.417 127.738 300.467 126.764 C 300.513 125.882,300.490 125.802,300.217 125.913 C 296.456 127.436,293.838 126.942,292.934 124.538 C 292.383 123.072,292.115 123.167,296.833 123.167 L 301.000 123.167 301.000 122.447 C 301.000 118.045,297.338 115.476,293.566 117.233 M311.583 117.010 C 309.831 117.525,308.836 119.676,309.562 121.380 C 310.028 122.473,310.805 122.915,313.287 123.498 C 314.939 123.886,315.582 124.258,315.704 124.899 C 316.036 126.634,313.537 127.351,310.727 126.327 C 309.030 125.709,309.167 125.667,309.167 126.806 L 309.167 127.818 309.792 127.992 C 314.706 129.367,318.407 127.797,317.920 124.546 C 317.703 123.102,316.583 122.284,314.083 121.744 C 312.559 121.414,311.446 120.774,311.360 120.178 C 311.162 118.793,313.303 118.091,315.667 118.766 C 317.478 119.283,317.333 119.326,317.333 118.276 L 317.333 117.346 316.470 117.090 C 315.521 116.808,312.442 116.758,311.583 117.010 M329.855 117.013 C 329.637 117.100,329.168 117.401,328.813 117.683 L 328.167 118.195 328.167 117.597 L 328.167 117.000 327.083 117.000 L 326.000 117.000 326.000 122.583 L 326.000 128.167 327.083 128.167 L 328.167 128.167 328.170 124.542 C 328.174 121.374,328.213 120.831,328.483 120.237 C 329.329 118.373,331.830 117.941,332.742 119.500 C 333.056 120.037,333.088 120.407,333.136 124.125 L 333.188 128.167 334.159 128.167 L 335.130 128.167 335.193 124.542 C 335.252 121.178,335.284 120.861,335.636 120.139 C 336.549 118.270,338.949 118.005,339.912 119.667 C 340.221 120.200,340.255 120.593,340.305 124.208 L 340.360 128.167 341.357 128.167 L 342.354 128.167 342.302 123.792 C 342.245 119.027,342.219 118.886,341.189 117.777 C 339.857 116.342,337.284 116.450,335.589 118.013 C 334.839 118.704,334.369 118.682,334.339 117.955 C 334.306 117.165,331.136 116.500,329.855 117.013 M349.209 117.184 C 348.819 117.377,348.313 117.758,348.084 118.030 L 347.667 118.526 347.667 117.763 L 347.667 117.000 346.667 117.000 L 345.667 117.000 345.667 124.667 L 345.667 132.333 346.667 132.333 L 347.667 132.333 347.667 129.609 L 347.667 126.885 348.311 127.498 C 349.393 128.527,351.732 128.825,353.115 128.110 C 356.672 126.270,356.510 118.604,352.880 117.061 C 352.032 116.701,350.051 116.767,349.209 117.184 M366.999 116.989 C 362.704 118.296,361.961 125.487,365.889 127.733 C 367.394 128.593,370.047 128.723,372.250 128.045 L 373.250 127.738 373.301 126.764 C 373.347 125.882,373.323 125.802,373.051 125.914 C 369.286 127.463,366.716 126.977,365.775 124.538 C 365.210 123.074,364.948 123.167,369.667 123.167 L 373.833 123.167 373.833 122.447 C 373.833 118.308,370.752 115.847,366.999 116.989 M67.333 122.583 L 67.333 128.167 68.333 128.167 L 69.333 128.167 69.333 122.583 L 69.333 117.000 68.333 117.000 L 67.333 117.000 67.333 122.583 M136.500 121.053 C 136.500 125.747,136.635 126.507,137.646 127.519 C 138.975 128.848,141.726 128.865,143.178 127.553 L 143.833 126.961 143.833 127.564 L 143.833 128.167 144.917 128.167 L 146.000 128.167 146.000 122.583 L 146.000 117.000 144.930 117.000 L 143.861 117.000 143.805 120.792 C 143.735 125.617,143.350 126.481,141.147 126.759 C 139.000 127.030,138.598 126.152,138.529 121.042 L 138.474 117.000 137.487 117.000 L 136.500 117.000 136.500 121.053 M209.500 122.583 L 209.500 128.167 210.500 128.167 L 211.500 128.167 211.500 122.583 L 211.500 117.000 210.500 117.000 L 209.500 117.000 209.500 122.583 M320.611 117.111 C 320.550 117.172,320.500 119.685,320.500 122.694 L 320.500 128.167 321.583 128.167 L 322.667 128.167 322.667 122.583 L 322.667 117.000 321.694 117.000 C 321.160 117.000,320.672 117.050,320.611 117.111 M27.678 118.878 C 30.307 120.649,29.620 126.251,26.714 126.742 C 24.623 127.095,23.177 125.090,23.380 122.118 C 23.581 119.191,25.734 117.568,27.678 118.878 M40.322 118.744 C 42.961 120.109,42.630 125.914,39.871 126.657 C 37.820 127.209,36.322 125.507,36.316 122.617 C 36.309 119.490,38.210 117.652,40.322 118.744 M52.393 118.729 C 55.139 119.877,54.953 125.851,52.146 126.693 C 49.993 127.338,48.403 125.436,48.525 122.361 C 48.642 119.429,50.313 117.860,52.393 118.729 M163.263 119.082 C 165.296 120.633,165.077 125.227,162.912 126.453 C 160.253 127.959,157.825 124.563,158.921 120.871 C 159.562 118.711,161.649 117.851,163.263 119.082 M220.609 118.822 C 223.186 119.992,222.890 125.870,220.214 126.672 C 218.043 127.323,216.500 125.620,216.500 122.572 C 216.500 119.475,218.343 117.793,220.609 118.822 M284.094 118.914 C 286.231 120.166,286.207 125.181,284.059 126.440 C 282.332 127.452,280.657 126.499,280.068 124.171 C 279.128 120.457,281.482 117.384,284.094 118.914 M297.266 118.817 C 298.061 119.178,298.659 120.037,298.788 121.005 L 298.877 121.667 295.759 121.667 L 292.640 121.667 292.757 121.125 C 293.206 119.041,295.346 117.945,297.266 118.817 M351.721 118.727 C 354.470 119.876,354.167 126.128,351.333 126.750 C 349.319 127.193,347.838 125.444,347.835 122.619 C 347.832 119.643,349.622 117.850,351.721 118.727 M370.099 118.817 C 370.894 119.178,371.492 120.037,371.622 121.005 L 371.711 121.667 368.592 121.667 L 365.474 121.667 365.590 121.125 C 366.039 119.041,368.180 117.945,370.099 118.817 M106.358 123.042 C 109.030 125.819,108.994 125.731,107.696 126.359 C 104.074 128.113,100.824 124.405,103.177 121.205 C 103.846 120.295,103.556 120.128,106.358 123.042 M195.996 123.042 C 195.967 125.710,193.762 127.527,191.726 126.561 C 190.436 125.949,190.307 123.805,191.522 123.155 C 192.607 122.574,196.002 122.488,195.996 123.042 M272.832 123.292 C 272.829 125.639,270.891 127.318,268.932 126.672 C 268.081 126.391,267.667 125.789,267.667 124.833 C 267.667 123.252,268.590 122.741,271.542 122.689 L 272.833 122.667 272.832 123.292 " stroke="none" fill="#040404" fill-rule="evenodd"></path></g></svg>